<svg width="44" height="42" viewBox="0 0 44 42" fill="none" xmlns="http://www.w3.org/2000/svg">
<path d="M3.7673 25.1227C-0.364582 20.1628 -1.66176 13.3191 2.7673 8.62269C7.18824 3.93485 13.2324 10.8812 19.2673 8.62269C24.3517 6.71984 24.9051 0.97107 30.2673 0.122692C40.9638 -1.56967 44.939 14.6278 42.2673 25.1227C39.9828 34.0965 33.6113 43.8672 24.7673 41.1227C19.3463 39.4404 19.8952 33.4091 15.2673 30.1227C11.2745 27.2873 6.90176 28.8853 3.7673 25.1227Z" fill="#68B984" fill-opacity="0.5"/>
<g clip-path="url(#clip0_222_111)">
<path d="M19.3438 10.4375C18.7719 10.4375 18.2234 10.6647 17.8191 11.0691C17.4147 11.4734 17.1875 12.0219 17.1875 12.5938V13.3125H12.1562C11.5844 13.3125 11.0359 13.5397 10.6316 13.9441C10.2272 14.3484 10 14.8969 10 15.4688V26.9688C10 27.5406 10.2272 28.0891 10.6316 28.4934C11.0359 28.8978 11.5844 29.125 12.1562 29.125H30.8438C31.4156 29.125 31.9641 28.8978 32.3684 28.4934C32.7728 28.0891 33 27.5406 33 26.9688V15.4688C33 14.8969 32.7728 14.3484 32.3684 13.9441C31.9641 13.5397 31.4156 13.3125 30.8438 13.3125H25.8125V12.5938C25.8125 12.0219 25.5853 11.4734 25.1809 11.0691C24.7766 10.6647 24.2281 10.4375 23.6562 10.4375H19.3438ZM19.3438 11.875H23.6562C23.8469 11.875 24.0297 11.9507 24.1645 12.0855C24.2993 12.2203 24.375 12.4031 24.375 12.5938V13.3125H18.625V12.5938C18.625 12.4031 18.7007 12.2203 18.8355 12.0855C18.9703 11.9507 19.1531 11.875 19.3438 11.875ZM22.0549 21.8139L31.5625 19.2796V26.9688C31.5625 27.1594 31.4868 27.3422 31.352 27.477C31.2172 27.6118 31.0344 27.6875 30.8438 27.6875H12.1562C11.9656 27.6875 11.7828 27.6118 11.648 27.477C11.5132 27.3422 11.4375 27.1594 11.4375 26.9688V19.2781L20.9451 21.8139C21.3087 21.9107 21.6913 21.9107 22.0549 21.8139ZM12.1562 14.75H30.8438C31.0344 14.75 31.2172 14.8257 31.352 14.9605C31.4868 15.0953 31.5625 15.2781 31.5625 15.4688V17.7918L21.6854 20.4252C21.5639 20.4577 21.4361 20.4577 21.3146 20.4252L11.4375 17.7918V15.4688C11.4375 15.2781 11.5132 15.0953 11.648 14.9605C11.7828 14.8257 11.9656 14.75 12.1562 14.75Z" fill="black"/>
</g>
<defs>
<clipPath id="clip0_222_111">
<rect width="23" height="23" fill="white" transform="translate(10 9)"/>
</clipPath>
</defs>
</svg>
