<svg width="188" height="27" viewBox="0 0 188 27" fill="none" xmlns="http://www.w3.org/2000/svg">
<g clip-path="url(#clip0_217_7)">
<path d="M47.3864 3.72727V27H41.7614V3.72727H47.3864ZM56.4744 17.0455V27H50.9176V9.54545H56.2017V12.75H56.3949C56.7813 11.6818 57.4403 10.8447 58.3722 10.2386C59.304 9.625 60.4138 9.31818 61.7017 9.31818C62.929 9.31818 63.9934 9.5947 64.8949 10.1477C65.804 10.6932 66.5085 11.4583 67.0085 12.4432C67.5161 13.4205 67.7661 14.5644 67.7585 15.875V27H62.2017V16.9659C62.2093 15.9962 61.9631 15.2386 61.4631 14.6932C60.9706 14.1477 60.285 13.875 59.4062 13.875C58.8229 13.875 58.3078 14.0038 57.8608 14.2614C57.4214 14.5114 57.0805 14.8712 56.8381 15.3409C56.6032 15.8106 56.482 16.3788 56.4744 17.0455ZM86.4375 14.875L81.3352 15.0114C81.2822 14.6477 81.1383 14.3258 80.9034 14.0455C80.6686 13.7576 80.3617 13.5341 79.983 13.375C79.6117 13.2083 79.1799 13.125 78.6875 13.125C78.0436 13.125 77.4943 13.2538 77.0398 13.5114C76.5928 13.7689 76.3731 14.1174 76.3807 14.5568C76.3731 14.8977 76.5095 15.1932 76.7898 15.4432C77.0777 15.6932 77.589 15.8939 78.3239 16.0455L81.6875 16.6818C83.4299 17.0152 84.7254 17.5682 85.5739 18.3409C86.4299 19.1136 86.8617 20.1364 86.8693 21.4091C86.8617 22.6061 86.5057 23.6477 85.8011 24.5341C85.1042 25.4205 84.1496 26.1098 82.9375 26.6023C81.7254 27.0871 80.339 27.3295 78.7784 27.3295C76.286 27.3295 74.3201 26.8182 72.8807 25.7955C71.4489 24.7652 70.6307 23.3864 70.4261 21.6591L75.9148 21.5227C76.036 22.1591 76.3504 22.6439 76.858 22.9773C77.3655 23.3106 78.0133 23.4773 78.8011 23.4773C79.5133 23.4773 80.0928 23.3447 80.5398 23.0795C80.9867 22.8144 81.214 22.4621 81.2216 22.0227C81.214 21.6288 81.0398 21.3144 80.6989 21.0795C80.358 20.8371 79.8239 20.6477 79.0966 20.5114L76.0511 19.9318C74.3011 19.6136 72.9981 19.0265 72.142 18.1705C71.286 17.3068 70.8617 16.2083 70.8693 14.875C70.8617 13.7083 71.1723 12.7121 71.8011 11.8864C72.4299 11.053 73.3239 10.4167 74.483 9.97727C75.642 9.53788 77.0095 9.31818 78.5852 9.31818C80.9489 9.31818 82.8125 9.81439 84.1761 10.8068C85.5398 11.7917 86.2936 13.1477 86.4375 14.875ZM100.866 19.4659V9.54545H106.412V27H101.116V23.75H100.935C100.548 24.8182 99.8892 25.6667 98.9574 26.2955C98.0331 26.9167 96.9157 27.2273 95.6051 27.2273C94.4157 27.2273 93.3703 26.9545 92.4688 26.4091C91.5672 25.8636 90.8665 25.1023 90.3665 24.125C89.8665 23.1402 89.6127 21.9886 89.6051 20.6705V9.54545H95.1619V19.5795C95.1695 20.5265 95.4195 21.2727 95.9119 21.8182C96.4044 22.3636 97.0748 22.6364 97.9233 22.6364C98.4763 22.6364 98.9725 22.5152 99.4119 22.2727C99.8589 22.0227 100.211 21.6629 100.469 21.1932C100.734 20.7159 100.866 20.1402 100.866 19.4659ZM109.949 27V9.54545H115.347V12.7273H115.528C115.847 11.5758 116.366 10.7197 117.085 10.1591C117.805 9.59091 118.642 9.30682 119.597 9.30682C119.854 9.30682 120.119 9.32576 120.392 9.36364C120.665 9.39394 120.919 9.44318 121.153 9.51136V14.3409C120.888 14.25 120.54 14.178 120.108 14.125C119.684 14.072 119.305 14.0455 118.972 14.0455C118.313 14.0455 117.718 14.1932 117.188 14.4886C116.665 14.7765 116.252 15.1818 115.949 15.7045C115.653 16.2197 115.506 16.8258 115.506 17.5227V27H109.949ZM123.418 27V9.54545H128.974V27H123.418ZM126.202 7.51136C125.421 7.51136 124.751 7.25379 124.19 6.73864C123.63 6.21591 123.349 5.58712 123.349 4.85227C123.349 4.125 123.63 3.50379 124.19 2.98864C124.751 2.46591 125.421 2.20454 126.202 2.20454C126.99 2.20454 127.66 2.46591 128.213 2.98864C128.774 3.50379 129.054 4.125 129.054 4.85227C129.054 5.58712 128.774 6.21591 128.213 6.73864C127.66 7.25379 126.99 7.51136 126.202 7.51136ZM142.364 9.54545V13.6364H131.352V9.54545H142.364ZM133.659 5.36364H139.216V21.5114C139.216 21.8523 139.269 22.1288 139.375 22.3409C139.489 22.5455 139.652 22.6932 139.864 22.7841C140.076 22.8674 140.33 22.9091 140.625 22.9091C140.837 22.9091 141.061 22.8902 141.295 22.8523C141.538 22.8068 141.72 22.7689 141.841 22.7386L142.682 26.75C142.417 26.8258 142.042 26.9205 141.557 27.0341C141.08 27.1477 140.508 27.2197 139.841 27.25C138.538 27.3106 137.42 27.1591 136.489 26.7955C135.564 26.4242 134.856 25.8485 134.364 25.0682C133.879 24.2879 133.644 23.3068 133.659 22.125V5.36364ZM150.119 27.2955C149.006 27.2955 148.017 27.1098 147.153 26.7386C146.297 26.3598 145.619 25.7917 145.119 25.0341C144.627 24.2689 144.381 23.3106 144.381 22.1591C144.381 21.1894 144.551 20.3712 144.892 19.7045C145.233 19.0379 145.703 18.4962 146.301 18.0795C146.9 17.6629 147.589 17.3485 148.369 17.1364C149.15 16.9167 149.983 16.7689 150.869 16.6932C151.862 16.6023 152.661 16.5076 153.267 16.4091C153.873 16.303 154.313 16.1553 154.585 15.9659C154.866 15.7689 155.006 15.4924 155.006 15.1364V15.0795C155.006 14.4962 154.805 14.0455 154.403 13.7273C154.002 13.4091 153.46 13.25 152.778 13.25C152.044 13.25 151.453 13.4091 151.006 13.7273C150.559 14.0455 150.275 14.4848 150.153 15.0455L145.028 14.8636C145.18 13.803 145.57 12.8561 146.199 12.0227C146.835 11.1818 147.706 10.5227 148.812 10.0455C149.926 9.56061 151.263 9.31818 152.824 9.31818C153.938 9.31818 154.964 9.45076 155.903 9.71591C156.843 9.97348 157.661 10.3523 158.358 10.8523C159.055 11.3447 159.593 11.9508 159.972 12.6705C160.358 13.3902 160.551 14.2121 160.551 15.1364V27H155.324V24.5682H155.188C154.877 25.1591 154.479 25.6591 153.994 26.0682C153.517 26.4773 152.953 26.7841 152.301 26.9886C151.657 27.1932 150.93 27.2955 150.119 27.2955ZM151.835 23.6591C152.434 23.6591 152.972 23.5379 153.449 23.2955C153.934 23.053 154.32 22.7197 154.608 22.2955C154.896 21.8636 155.04 21.3636 155.04 20.7955V19.1364C154.881 19.2197 154.688 19.2955 154.46 19.3636C154.241 19.4318 153.998 19.4962 153.733 19.5568C153.468 19.6174 153.195 19.6705 152.915 19.7159C152.634 19.7614 152.366 19.803 152.108 19.8409C151.585 19.9242 151.138 20.053 150.767 20.2273C150.403 20.4015 150.123 20.6288 149.926 20.9091C149.737 21.1818 149.642 21.5076 149.642 21.8864C149.642 22.4621 149.847 22.9015 150.256 23.2045C150.672 23.5076 151.199 23.6591 151.835 23.6591ZM179.188 14.875L174.085 15.0114C174.032 14.6477 173.888 14.3258 173.653 14.0455C173.419 13.7576 173.112 13.5341 172.733 13.375C172.362 13.2083 171.93 13.125 171.438 13.125C170.794 13.125 170.244 13.2538 169.79 13.5114C169.343 13.7689 169.123 14.1174 169.131 14.5568C169.123 14.8977 169.259 15.1932 169.54 15.4432C169.828 15.6932 170.339 15.8939 171.074 16.0455L174.438 16.6818C176.18 17.0152 177.475 17.5682 178.324 18.3409C179.18 19.1136 179.612 20.1364 179.619 21.4091C179.612 22.6061 179.256 23.6477 178.551 24.5341C177.854 25.4205 176.9 26.1098 175.688 26.6023C174.475 27.0871 173.089 27.3295 171.528 27.3295C169.036 27.3295 167.07 26.8182 165.631 25.7955C164.199 24.7652 163.381 23.3864 163.176 21.6591L168.665 21.5227C168.786 22.1591 169.1 22.6439 169.608 22.9773C170.116 23.3106 170.763 23.4773 171.551 23.4773C172.263 23.4773 172.843 23.3447 173.29 23.0795C173.737 22.8144 173.964 22.4621 173.972 22.0227C173.964 21.6288 173.79 21.3144 173.449 21.0795C173.108 20.8371 172.574 20.6477 171.847 20.5114L168.801 19.9318C167.051 19.6136 165.748 19.0265 164.892 18.1705C164.036 17.3068 163.612 16.2083 163.619 14.875C163.612 13.7083 163.922 12.7121 164.551 11.8864C165.18 11.053 166.074 10.4167 167.233 9.97727C168.392 9.53788 169.759 9.31818 171.335 9.31818C173.699 9.31818 175.563 9.81439 176.926 10.8068C178.29 11.7917 179.044 13.1477 179.188 14.875ZM185.48 27.3295C184.662 27.3295 183.961 27.0417 183.378 26.4659C182.802 25.8902 182.518 25.1932 182.526 24.375C182.518 23.572 182.802 22.8864 183.378 22.3182C183.961 21.7424 184.662 21.4545 185.48 21.4545C186.253 21.4545 186.935 21.7424 187.526 22.3182C188.124 22.8864 188.427 23.572 188.435 24.375C188.427 24.9205 188.283 25.4167 188.003 25.8636C187.73 26.3106 187.37 26.6667 186.923 26.9318C186.484 27.197 186.003 27.3295 185.48 27.3295Z" fill="#68B984"/>
<path d="M5 26.5C5 19.4718 7.6866 12.7314 12.4688 7.76167C17.251 2.79196 23.737 -8.38109e-08 30.5 0L30.5 26.5L5 26.5Z" fill="#FED049"/>
<path d="M0.5 0C7.26302 8.38109e-08 13.749 2.79196 18.5312 7.76167C23.3134 12.7314 26 19.4718 26 26.5L0.5 26.5L0.5 0Z" fill="#68B984" fill-opacity="0.9"/>
</g>
<defs>
<clipPath id="clip0_217_7">
<rect width="188" height="27" fill="white"/>
</clipPath>
</defs>
</svg>
