<svg width="43" height="42" viewBox="0 0 43 42" fill="none" xmlns="http://www.w3.org/2000/svg">
<g clip-path="url(#clip0_222_87)">
<path d="M3.7673 25.1227C-0.364582 20.1628 -1.66176 13.3191 2.7673 8.62269C7.18824 3.93485 13.2324 10.8812 19.2673 8.62269C24.3517 6.71984 24.9051 0.97107 30.2673 0.122692C40.9638 -1.56967 44.939 14.6278 42.2673 25.1227C39.9828 34.0965 33.6113 43.8672 24.7673 41.1227C19.3463 39.4404 19.8952 33.4091 15.2673 30.1227C11.2745 27.2873 6.90176 28.8853 3.7673 25.1227Z" fill="#68B984" fill-opacity="0.5"/>
<path d="M22.0089 10.6472C21.9421 10.5803 21.8628 10.5272 21.7755 10.4909C21.6882 10.4547 21.5945 10.436 21.5 10.436C21.4055 10.436 21.3118 10.4547 21.2245 10.4909C21.1372 10.5272 21.0579 10.5803 20.9911 10.6472L12.3661 19.2722C12.2994 19.3391 12.2466 19.4184 12.2105 19.5057C12.1745 19.5931 12.1561 19.6866 12.1563 19.7811V29.8436C12.1563 30.0342 12.232 30.217 12.3668 30.3518C12.5016 30.4866 12.6844 30.5623 12.875 30.5623H19.3438C19.5344 30.5623 19.7172 30.4866 19.852 30.3518C19.9868 30.217 20.0625 30.0342 20.0625 29.8436V24.0936H22.9375V29.8436C22.9375 30.0342 23.0132 30.217 23.148 30.3518C23.2828 30.4866 23.4656 30.5623 23.6563 30.5623H30.125C30.3156 30.5623 30.4984 30.4866 30.6332 30.3518C30.768 30.217 30.8437 30.0342 30.8437 29.8436V19.7811C30.8439 19.6866 30.8255 19.5931 30.7895 19.5057C30.7534 19.4184 30.7006 19.3391 30.6339 19.2722L28.6875 17.3273V12.5936C28.6875 12.4029 28.6118 12.2201 28.477 12.0853C28.3422 11.9505 28.1594 11.8748 27.9688 11.8748H26.5313C26.3406 11.8748 26.1578 11.9505 26.023 12.0853C25.8882 12.2201 25.8125 12.4029 25.8125 12.5936V14.4523L22.0089 10.6472ZM13.5938 29.1248V20.0786L21.5 12.1724L29.4062 20.0786V29.1248H24.375V23.3748C24.375 23.1842 24.2993 23.0014 24.1645 22.8666C24.0297 22.7318 23.8469 22.6561 23.6563 22.6561H19.3438C19.1531 22.6561 18.9703 22.7318 18.8355 22.8666C18.7007 23.0014 18.625 23.1842 18.625 23.3748V29.1248H13.5938Z" fill="black"/>
</g>
<defs>
<clipPath id="clip0_222_87">
<rect width="43" height="42" fill="white"/>
</clipPath>
</defs>
</svg>
