<svg width="44" height="42" viewBox="0 0 44 42" fill="none" xmlns="http://www.w3.org/2000/svg">
<path d="M3.7673 25.1227C-0.364582 20.1628 -1.66176 13.3191 2.7673 8.62269C7.18824 3.93485 13.2324 10.8812 19.2673 8.62269C24.3517 6.71984 24.9051 0.97107 30.2673 0.122692C40.9638 -1.56967 44.939 14.6278 42.2673 25.1227C39.9828 34.0965 33.6113 43.8672 24.7673 41.1227C19.3463 39.4404 19.8952 33.4091 15.2673 30.1227C11.2745 27.2873 6.90176 28.8853 3.7673 25.1227Z" fill="#68B984" fill-opacity="0.5"/>
<g clip-path="url(#clip0_222_92)">
<path d="M19.3438 11.875C19.1531 11.875 18.9703 11.9507 18.8355 12.0855C18.7007 12.2203 18.625 12.4031 18.625 12.5938C18.625 12.7844 18.7007 12.9672 18.8355 13.102C18.9703 13.2368 19.1531 13.3125 19.3438 13.3125H23.6562C23.8469 13.3125 24.0297 13.2368 24.1645 13.102C24.2993 12.9672 24.375 12.7844 24.375 12.5938C24.375 12.4031 24.2993 12.2203 24.1645 12.0855C24.0297 11.9507 23.8469 11.875 23.6562 11.875H19.3438ZM25.8125 20.5C25.8125 21.6437 25.3581 22.7406 24.5494 23.5494C23.7406 24.3581 22.6437 24.8125 21.5 24.8125C20.3563 24.8125 19.2594 24.3581 18.4506 23.5494C17.6419 22.7406 17.1875 21.6437 17.1875 20.5C17.1875 19.3563 17.6419 18.2594 18.4506 17.4506C19.2594 16.6419 20.3563 16.1875 21.5 16.1875C22.6437 16.1875 23.7406 16.6419 24.5494 17.4506C25.3581 18.2594 25.8125 19.3563 25.8125 20.5Z" fill="black"/>
<path d="M16.4688 9C15.5156 9 14.6015 9.37863 13.9276 10.0526C13.2536 10.7265 12.875 11.6406 12.875 12.5938V29.125C12.875 29.8875 13.1779 30.6188 13.7171 31.1579C14.2562 31.6971 14.9875 32 15.75 32H27.25C28.0125 32 28.7438 31.6971 29.2829 31.1579C29.8221 30.6188 30.125 29.8875 30.125 29.125V12.5938C30.125 11.6406 29.7464 10.7265 29.0724 10.0526C28.3985 9.37863 27.4844 9 26.5312 9H16.4688ZM14.3125 12.5938C14.3125 12.0219 14.5397 11.4734 14.9441 11.0691C15.3484 10.6647 15.8969 10.4375 16.4688 10.4375H26.5312C27.1031 10.4375 27.6516 10.6647 28.0559 11.0691C28.4603 11.4734 28.6875 12.0219 28.6875 12.5938V28.1116C28.3427 27.8357 27.9686 27.5986 27.572 27.4043C26.376 26.8063 24.4656 26.25 21.5 26.25C18.5344 26.25 16.624 26.8063 15.428 27.4043C15.0314 27.5986 14.6573 27.8357 14.3125 28.1116V12.5938Z" fill="black"/>
</g>
<defs>
<clipPath id="clip0_222_92">
<rect width="23" height="23" fill="white" transform="translate(10 9)"/>
</clipPath>
</defs>
</svg>
