<svg width="44" height="42" viewBox="0 0 44 42" fill="none" xmlns="http://www.w3.org/2000/svg">
<path d="M3.7673 25.1227C-0.364582 20.1628 -1.66176 13.3191 2.7673 8.62269C7.18824 3.93485 13.2324 10.8812 19.2673 8.62269C24.3517 6.71984 24.9051 0.97107 30.2673 0.122692C40.9638 -1.56967 44.939 14.6278 42.2673 25.1227C39.9828 34.0965 33.6113 43.8672 24.7673 41.1227C19.3463 39.4404 19.8952 33.4091 15.2673 30.1227C11.2745 27.2873 6.90176 28.8853 3.7673 25.1227Z" fill="#68B984" fill-opacity="0.5"/>
<path d="M15.75 24.8125C15.75 24.4313 15.9015 24.0656 16.171 23.796C16.4406 23.5265 16.8063 23.375 17.1875 23.375C17.5687 23.375 17.9344 23.5265 18.204 23.796C18.4735 24.0656 18.625 24.4313 18.625 24.8125V26.25C18.625 26.6312 18.4735 26.9969 18.204 27.2665C17.9344 27.536 17.5687 27.6875 17.1875 27.6875C16.8063 27.6875 16.4406 27.536 16.171 27.2665C15.9015 26.9969 15.75 26.6312 15.75 26.25V24.8125ZM24.375 19.0625C24.375 18.6813 24.5265 18.3156 24.796 18.046C25.0656 17.7765 25.4313 17.625 25.8125 17.625C26.1937 17.625 26.5594 17.7765 26.829 18.046C27.0985 18.3156 27.25 18.6813 27.25 19.0625V26.25C27.25 26.6312 27.0985 26.9969 26.829 27.2665C26.5594 27.536 26.1937 27.6875 25.8125 27.6875C25.4313 27.6875 25.0656 27.536 24.796 27.2665C24.5265 26.9969 24.375 26.6312 24.375 26.25V19.0625ZM20.0625 21.9375C20.0625 21.5563 20.214 21.1906 20.4835 20.921C20.7531 20.6515 21.1188 20.5 21.5 20.5C21.8812 20.5 22.2469 20.6515 22.5165 20.921C22.786 21.1906 22.9375 21.5563 22.9375 21.9375V26.25C22.9375 26.6312 22.786 26.9969 22.5165 27.2665C22.2469 27.536 21.8812 27.6875 21.5 27.6875C21.1188 27.6875 20.7531 27.536 20.4835 27.2665C20.214 26.9969 20.0625 26.6312 20.0625 26.25V21.9375Z" fill="black"/>
<path d="M15.75 11.1562H14.3125C13.55 11.1562 12.8187 11.4592 12.2796 11.9983C11.7404 12.5375 11.4375 13.2688 11.4375 14.0312V29.125C11.4375 29.8875 11.7404 30.6188 12.2796 31.1579C12.8187 31.6971 13.55 32 14.3125 32H28.6875C29.45 32 30.1813 31.6971 30.7204 31.1579C31.2596 30.6188 31.5625 29.8875 31.5625 29.125V14.0312C31.5625 13.2688 31.2596 12.5375 30.7204 11.9983C30.1813 11.4592 29.45 11.1562 28.6875 11.1562H27.25V12.5938H28.6875C29.0687 12.5938 29.4344 12.7452 29.704 13.0148C29.9735 13.2844 30.125 13.65 30.125 14.0312V29.125C30.125 29.5062 29.9735 29.8719 29.704 30.1415C29.4344 30.411 29.0687 30.5625 28.6875 30.5625H14.3125C13.9313 30.5625 13.5656 30.411 13.296 30.1415C13.0265 29.8719 12.875 29.5062 12.875 29.125V14.0312C12.875 13.65 13.0265 13.2844 13.296 13.0148C13.5656 12.7452 13.9313 12.5938 14.3125 12.5938H15.75V11.1562Z" fill="black"/>
<path d="M23.6562 10.4375C23.8469 10.4375 24.0297 10.5132 24.1645 10.648C24.2993 10.7828 24.375 10.9656 24.375 11.1562V12.5938C24.375 12.7844 24.2993 12.9672 24.1645 13.102C24.0297 13.2368 23.8469 13.3125 23.6562 13.3125H19.3438C19.1531 13.3125 18.9703 13.2368 18.8355 13.102C18.7007 12.9672 18.625 12.7844 18.625 12.5938V11.1562C18.625 10.9656 18.7007 10.7828 18.8355 10.648C18.9703 10.5132 19.1531 10.4375 19.3438 10.4375H23.6562ZM19.3438 9C18.7719 9 18.2234 9.22718 17.8191 9.63155C17.4147 10.0359 17.1875 10.5844 17.1875 11.1562V12.5938C17.1875 13.1656 17.4147 13.7141 17.8191 14.1184C18.2234 14.5228 18.7719 14.75 19.3438 14.75H23.6562C24.2281 14.75 24.7766 14.5228 25.1809 14.1184C25.5853 13.7141 25.8125 13.1656 25.8125 12.5938V11.1562C25.8125 10.5844 25.5853 10.0359 25.1809 9.63155C24.7766 9.22718 24.2281 9 23.6562 9H19.3438Z" fill="black"/>
</svg>
